<ttFont>
<head>
    <!-- Most of this table will be recalculated by the compiler -->
    <tableVersion value="1.0"/>
    <fontRevision value="1.0"/>
    <checkSumAdjustment value="0x59b0e8bc"/>
    <magicNumber value="0x5f0f3cf5"/>
    <flags value="00000000 00000011"/>
    <unitsPerEm value="1000"/>
    <created value="Mon Jun  2 16:14:53 2025"/>
    <modified value="Mon Jun  2 16:14:53 2025"/>
    <xMin value="0"/>
    <yMin value="-120"/>
    <xMax value="1000"/>
    <yMax value="880"/>
    <macStyle value="00000000 00000000"/>
    <lowestRecPPEM value="3"/>
    <fontDirectionHint value="2"/>
    <indexToLocFormat value="0"/>
    <glyphDataFormat value="0"/>
  </head>
              <CharString index="0">
                -106 callsubr
                0</CharString>
              <CharString index="1">
                0 0 0</CharString>
              <CharString index="2">
                -99 callsubr
                0</CharString>
              <CharString index="3">
                -107 callsubr
                0 0</CharString>
              <CharString index="4">
                -0.01941</CharString>
              <CharString index="5">
                0.01941</CharString>
              <CharString index="6">
                -0.09528</CharString>
              <CharString index="7">
                0.09528</CharString>
              <CharString index="8">
                -104 callsubr
                0 0</CharString>
              <CharString index="9">
                -105 callsubr
                -106 callsubr
              </CharString>
              <CharString index="10">
                0 -95 callsubr
                0</CharString>
              <CharString index="11">
                -106 callsubr
                -90 callsubr
                3 blend
                vlineto
              </CharString>
              <CharString index="12">
                0 0 -94 callsubr
              </CharString>
              <CharString index="13">
                0 0 -93 callsubr
              </CharString>
              <CharString index="14">
                -100 100 -104 callsubr
                -107 callsubr
              </CharString>
              <CharString index="15">
                0 -900 -104 callsubr
                -106 callsubr
              </CharString>
              <CharString index="16">
                0 0 100 -100 -104 callsubr
                0 0</CharString>
              <CharString index="17">
                140 -106 callsubr
                -50 50 -106 callsubr
              </CharString>
              <CharString index="18">
                -106 callsubr
                2 0 2 -106 callsubr
              </CharString>
        <CharString name=".notdef">
        </CharString>
        <CharString name="T_4EBA_2FF1">
        </CharString>
        <CharString name="VG_31CF_00">
          1 vsindex
          83 838 137 -13 2 -93 callsubr
          -26 8 11 -97 callsubr
          2 blend
          rmoveto
          -24 -8 141 -446 284 -320 459 -126 -137 13 -2 100 -100 -105 callsubr
          0 26 -8 -14 -51 -15 6 -91 callsubr
          46 2 -2 -2 117 -106 -99 callsubr
          100 -100 0 0 -28 -109.76389 -3.23611 10 357 54 -105 callsubr
          0 100 -100 -11 -20.9874 -3.0126 -74 40 -227 -98 callsubr
          24 -43.83473 8.56078 28 268 22 -98 callsubr
          64 -25.11368 -78.2471 -19 -156 -392 -99 callsubr
          -100 100 0 0 -19 157.59862 -6.32468 13 110 -82 -105 callsubr
          0 -100 100 -99 44.10109 83.2597 8 blend
          rlinecurve
          4 8 7 9 5 5 -460 124 -279 318 -137 436 19 -1 3 -107 callsubr
          -35 32 2 -3 -107 callsubr
          11 0.35463 2.64537 35 0 -4 -107 callsubr
          1 1 -33 32 -107 callsubr
          -9 2.35463 -5.35463 44 -1 3 -107 callsubr
          -33 29 -2 -1 -107 callsubr
          -1 -3.84288 3.84288 61 1 -6 -107 callsubr
          -2 -2 -38 33 -106 callsubr
          1 -42 3 -3 32 1 3 -107 callsubr
          -32 39 0 4 -107 callsubr
          9 -0.51175 -2.48825 29 2 -4 -107 callsubr
          1 1 -29 35 -107 callsubr
          -21 0.63782 2.36218 49 144 393 -49.1252 48.74237 3.35931 -3.73611 48.74237 -49.1252 -3.73611 3.35931 100 -100 0 0 -5 -149.93752 11.93752 -32 -108 78 13.24245 -13.13925 -0.90555 1 -13.13925 13.24245 1 -0.90555 0 0 100 -100 74 -40.51248 -59.48752 62 -40 221 -49.39719 49.926 -17.47974 18 49.926 -49.39719 18 -17.47974 -107 callsubr
          -14 47.79951 -8.8291 -37 -266 -12 -17.94495 17.37714 -54.15646 53.59456 17.37714 -17.94495 53.59456 -54.15646 -106 callsubr
          -1 -53 15.06683 68.08769 26 -117 104 -1.47762 1.33163 14.12042 -14.2673 1.33163 -1.47762 -14.2673 14.12042 -100 100 0 0 -3 110.138 7.89159 -56 -349 -52 4.7025 -4.23788 -44.93797 45.40544 -4.23788 4.7025 45.40544 -44.93797 0 0 -100 100 51 19.44565 -2.60019 12 blend
          rrcurveto
        </CharString>
        <CharString name="VG_4E00_00">
          2 vsindex
          390 190 0 1 blend
          vmoveto
          -10 1000 10 -190 0 0 -990 190 0 3 blend
          vlineto
        </CharString>
        <CharString name="VG_4E28_00">
          500 880 rmoveto
          3 vsindex
          -1000 10 1000 0 990 -1000 0 190 -107 callsubr
          -990 1000 100 3 blend
          vlineto
        </CharString>
        <CharString name="VG_4E3F_01">
          4 vsindex
          924 793 -74 -3 16 0 0 100 -100 -104 callsubr
          4 53 -12 -106 callsubr
          -50 0 -99 callsubr
          26 -12 16 -107 callsubr
          -100 100 -107 callsubr
          -15 43 -2 -106 callsubr
          -18 -105 callsubr
          2 blend
          rmoveto
          -218 -323 -316 -271 -369 -163 8 -6 8 -10 5 -7 23 204.98349 -68.43005 100 0 -7.83304 7.25789 19.33598 -20.15994 7.37018 -7.83304 -20.15994 19.33598 -22.83272 -16.31778 56.44655 15.64632 -21.31949 90.37193 12.1505 -12.31773 0.83272 -6.01651 -13.84921 21.74211 13.16728 8.16728 -69.7971 10.15079 -2 61.66867 240.58855 0 -100 -11.60583 10.75365 28.64919 -29.87001 10.92003 -11.60583 -29.87001 28.64919 5.35852 4.20403 -20.25722 0.41129 -2.31786 0.32631 -15.56256 -0.42136 2.64148 5.66867 15.02719 0.24635 -1.64148 6.35852 -0.43849 -0.97281 5 286.01651 10.43005 0 0 -57.69223 58.89069 -26.84535 28.54887 58.64986 -57.69223 28.54887 -26.84535 -5.87553 1.96452 -14.44655 -32.66637 24.82884 -180.54054 11.91101 20.55125 2.87553 10.01651 7.14096 -31.89069 -11.87553 -16.87553 161.52539 10.14096 15 -10.66867 235.41145 0 0 26.83452 -25.707 68.03366 -66.42432 -25.93016 26.83452 -66.42432 68.03366 -11.83743 -16.25014 -1.74278 -0.40117 2.63501 -0.36285 29.08755 0.67159 -3.16257 -29.66867 -29.5061 -0.293 13.16257 -12.83743 0.90727 26.4939 -1 303 50 -100 0 -34.47473 33.85144 7.50937 -8.38893 33.97997 -34.47473 -8.38893 7.50937 1.70825 8.35326 -17 17.02003 -3.50937 90.16861 -10.06152 -8.23352 -3.70825 -4 6.70825 10.14856 -1.29175 8.70825 -91.72829 -20.29175 26 -68 161 0 100 -15.22868 14.95334 3.31714 -3.70569 15.01012 -15.22868 -3.70569 3.31714 -23.5211 -25.9539 35 -0.01012 -0.31714 0.03653 16.47499 -0.25023 0.5211 24 14.4789 0.04666 -11.5211 6.4789 -0.46878 -25.5211 22 2 -5 -104 callsubr
          -31 35 0 5 25 -19 3 0 -4 0 7 -105 callsubr
          -30 6 -3 -104 callsubr
          -2 2 29 -34 25 -8 -2 -106 callsubr
          -8 -105 callsubr
          37 4 -7 -104 callsubr
          -35 31 1 -1 9.90472 -37 6 -106 callsubr
          36.09528 -100 callsubr
          -100 callsubr
          0 -101 callsubr
          0 -101 callsubr
          -101 callsubr
          -100 callsubr
          -101 callsubr
          -58 7 -3 -104 callsubr
          2 3 44 -33 51.01941 -4 -3 -106 callsubr
          -19.01941 -103 callsubr
          -103 callsubr
          0 -102 callsubr
          0 -102 callsubr
          -102 callsubr
          -103 callsubr
          -102 callsubr
          18 3 -6 -104 callsubr
          -34 34 -1 -4 28.09528 -21 3 0 4 0 11.90472 -101 callsubr
          -101 callsubr
          0 -100 callsubr
          0 -100 callsubr
          -100 callsubr
          -101 callsubr
          -100 callsubr
          -35 4 -2 -104 callsubr
          0 -5 27 -33 26.98059 -5 -107 callsubr
          -13.98059 -102 callsubr
          -102 callsubr
          0 -103 callsubr
          0 -103 callsubr
          -103 callsubr
          -102 callsubr
          -103 callsubr
          12 blend
          rrcurveto
          366 166 314 267 229 334 42 -302 -49 100 -105 callsubr
          -42 -42 16 -106 callsubr
          47 -89 callsubr
          -1 65 -162 0 -100 -99 callsubr
          1 1 -34 -106 callsubr
          7 -105 callsubr
          -13 -282 -8 -105 callsubr
          0 13 13 12 -106 callsubr
          -23 -106 callsubr
          -4 0 -4 -106 callsubr
          -6 13 -234 -105 callsubr
          0 6 6 3 -106 callsubr
          -16 -105 callsubr
          5 -216 67 -100 -105 callsubr
          -5 -5 -53 -106 callsubr
          9 -89 callsubr
          43 -66 -249 0 100 -99 callsubr
          -43 -43 25 -106 callsubr
          56 -105 callsubr
          6 blend
          rrcurveto
        </CharString>
        <CharString name="VG_531A_00">
          5 vsindex
          880 -92 callsubr
          1 blend
          vmoveto
          -1000 20 1000 0 900 0 -100 -105 callsubr
          140 0 -20 20 -104 callsubr
          -900 0 100 -104 callsubr
          0 3 blend
          vlineto
          -20 0 0 -140 0 20 -20 0 -107 callsubr
          1 blend
          hmoveto
          -20 1000 20 0 0 -140 -106 callsubr
          50 -50 -106 callsubr
          -900 -104 callsubr
          0 -50 50 -96 callsubr
          -1000 -980 900 -104 callsubr
          0 50 -50 0 0 900 -90 callsubr
          2 blend
          rmoveto
          -20 1000 20 0 0 -140 -106 callsubr
          50 -50 0 0 -92 callsubr
          -96 callsubr
        </CharString>
        <CharString name="VG_53E3_00">
          880 vmoveto
          6 vsindex
          -1000 30 970 940 -970 30 1000 -105 callsubr
          940 0 -200 -107 callsubr
          0 130 -95 callsubr
          -130 100 -100 -104 callsubr
          -940 0 200 -107 callsubr
          0 -260 -107 callsubr
          100 -100 100 -100 0 -940 -104 callsubr
          130 -100 100 -104 callsubr
          940 0 0 -200 -107 callsubr
          130 0 -97 callsubr
          0 -107 callsubr
          0 -940 0 0 200 -107 callsubr
          7 blend
          vlineto
          -990 -970 -105 callsubr
          0 940 -107 callsubr
          250 0 130 0 0 -100 100 -107 callsubr
          940 -106 callsubr
          -300 300 0 0 2 blend
          rmoveto
          -30 989 30 -130 -91 callsubr
          0 0 0 -105 callsubr
          0 0 -940 -107 callsubr
          -509 0 130 -94 callsubr
          0 0 3 blend
          vlineto
        </CharString>
        <CharString name="VG_65E5_00">
        </CharString>
        <CharString name="VG_7530_00">
        </CharString>
        <CharString name="uni3479">
        </CharString>
        <CharString name="uni531A">
        </CharString>
</ttFont>
